<?xml version="1.0" encoding="UTF-8" standalone="no"?>
<!DOCTYPE svg PUBLIC "-//W3C//DTD SVG 1.1//EN" "http://www.w3.org/Graphics/SVG/1.1/DTD/svg11.dtd">
<svg width="100%" height="100%" viewBox="0 0 178 201" version="1.1" xmlns="http://www.w3.org/2000/svg" xmlns:xlink="http://www.w3.org/1999/xlink" xml:space="preserve" xmlns:serif="http://www.serif.com/" style="fill-rule:evenodd;clip-rule:evenodd;stroke-linecap:round;stroke-linejoin:round;stroke-miterlimit:1.5;">
    <g transform="matrix(1,0,0,1,-1096.91257,-980.665419)">
        <g transform="matrix(0.98482,0,0,0.98482,260.843813,-109.844382)">
            <g transform="matrix(1.701289,-0.23118,0.23118,1.701289,-996.931783,-588.748055)">
                <g transform="matrix(1.238693,0,0,1.278684,-244.981156,-323.702187)">
                    <path d="M1009.186,1140.083L993.902,1173.604L1031.472,1161.978L1009.186,1140.083Z" style="fill:rgb(156,249,132);stroke:rgb(143,201,64);stroke-width:0.94px;"/>
                </g>
                <path d="M1009.427,1139.613L998.685,1162.571" style="fill:none;stroke:rgb(143,201,64);stroke-width:1.18px;"/>
                <path d="M1017.954,1147.84L1004.056,1162.571" style="fill:none;stroke:rgb(143,201,64);stroke-width:1.18px;"/>
                <path d="M1027.52,1158.554L1004.056,1166.78" style="fill:none;stroke:rgb(143,201,64);stroke-width:1.18px;"/>
            </g>
            <g transform="matrix(1.022831,-0.138988,0.138988,1.022831,-205.212967,103.988717)">
                <path d="M975.39,1153.046C972.564,1149.908 968.46,1148.233 964.245,1148.497C960.031,1148.762 956.168,1150.937 953.756,1154.403C931.205,1186.825 876.921,1264.864 860.424,1288.581C859.928,1289.294 859.995,1290.257 860.587,1290.894C861.178,1291.532 862.133,1291.671 862.882,1291.229C887.735,1276.564 969.42,1228.362 1002.996,1208.549C1006.581,1206.434 1009.026,1202.821 1009.657,1198.708C1010.288,1194.594 1009.039,1190.415 1006.255,1187.322C997.191,1177.256 984.537,1163.204 975.39,1153.046Z" style="fill:rgb(255,196,119);stroke:rgb(218,134,0);stroke-width:1.97px;"/>
            </g>
            <g transform="matrix(1.022831,-0.138988,0.138988,1.022831,-205.212967,103.988717)">
                <path d="M933.209,1184.309C933.405,1185.838 934.699,1195.915 944.728,1199.749" style="fill:none;stroke:rgb(218,134,0);stroke-width:1.97px;"/>
            </g>
            <g transform="matrix(1.022831,-0.138988,0.138988,1.022831,-205.212967,103.988717)">
                <path d="M977.288,1223.185C970.764,1221.405 970.328,1221.512 967.017,1216.062" style="fill:none;stroke:rgb(218,134,0);stroke-width:1.97px;"/>
            </g>
            <g transform="matrix(1.022831,-0.138988,0.138988,1.022831,-205.212967,103.988717)">
                <path d="M909.945,1217.751C911.675,1220.12 911.612,1220.073 913.752,1222.132" style="fill:none;stroke:rgb(218,134,0);stroke-width:1.97px;"/>
            </g>
            <g transform="matrix(0.988735,-0.134355,0.244924,1.802433,-308.133512,-854.58977)">
                <path d="M961.619,1231.321C958.558,1229.915 955.497,1228.509 952.436,1227.104" style="fill:none;stroke:rgb(218,134,0);stroke-width:1.38px;"/>
            </g>
            <g transform="matrix(1.022831,-0.138988,0.138988,1.022831,-205.212967,103.988717)">
                <path d="M960.9,1167.375C955.685,1163.064 955.67,1163.293 950.71,1158.656" style="fill:none;stroke:rgb(218,134,0);stroke-width:1.97px;"/>
            </g>
            <g transform="matrix(1.022831,-0.138988,0.138988,1.022831,-205.212967,103.988717)">
                <path d="M920.245,1256.457C913.762,1253.045 913.74,1253.328 907.929,1249.005" style="fill:none;stroke:rgb(218,134,0);stroke-width:1.97px;"/>
            </g>
            <g transform="matrix(1.499476,-0.203757,0.272804,2.007602,-738.029289,-1130.862266)">
                <path d="M920.245,1256.457C913.762,1253.045 913.74,1253.328 907.929,1249.005" style="fill:none;stroke:rgb(218,134,0);stroke-width:1.14px;"/>
            </g>
            <g transform="matrix(2.255771,-0.306527,0.108556,0.798882,-1253.220847,533.58924)">
                <path d="M881.085,1259.147C883.023,1263.714 882.988,1263.628 886.045,1267.68" style="fill:none;stroke:rgb(218,134,0);stroke-width:1.19px;"/>
            </g>
        </g>
    </g>
</svg>
